<svg width="370" height="142" viewBox="0 0 370 142" fill="none" xmlns="http://www.w3.org/2000/svg">
<rect y="20.5" width="106" height="121.174" rx="8" fill="url(#paint0_linear_3063_86)"/>
<path d="M53 36.5L81 64.3852L53 92.2704L25 64.3852L53 36.5Z" fill="url(#paint1_linear_3063_86)"/>
<path opacity="0.05" d="M53 36.5L81 64.3852H53V36.5Z" fill="black"/>
<path opacity="0.7" d="M25.1582 64.3853L53.1582 36.5L53.1582 64.3852L25.1582 64.3853Z" fill="white"/>
<path opacity="0.1" d="M53.1582 92.4999L25.1582 64.6147L53.1582 64.6147L53.1582 92.4999Z" fill="black"/>
<path opacity="0.3" d="M80.9941 64.6146L52.9941 92.4998L52.9941 64.6146L80.9941 64.6146Z" fill="white"/>
<path d="M52.9941 46.9753L70.4941 64.4036L52.9941 81.8319L35.4941 64.4036L52.9941 46.9753Z" fill="#73DCF9"/>
<g filter="url(#filter0_d_3063_86)">
<path d="M41.1699 121.35H33.541V108.5H41.1699V111.286H37.0127V113.308H40.8623V116.094H37.0127V118.52H41.1699V121.35Z" fill="white"/>
<path d="M47.7181 111.216C48.9779 111.216 49.9623 111.529 50.6712 112.156C51.3802 112.777 51.7347 113.665 51.7347 114.819V121.35H49.3529L48.6937 120.031H48.6234C48.3421 120.383 48.0521 120.67 47.7533 120.893C47.4603 121.109 47.1234 121.268 46.7425 121.367C46.3617 121.473 45.8959 121.525 45.3451 121.525C44.7709 121.525 44.2552 121.408 43.7982 121.174C43.3412 120.939 42.9808 120.585 42.7171 120.11C42.4535 119.636 42.3216 119.035 42.3216 118.309C42.3216 117.242 42.6908 116.451 43.4291 115.936C44.1673 115.42 45.2367 115.13 46.6371 115.065L48.2982 115.013V114.872C48.2982 114.427 48.1869 114.11 47.9642 113.923C47.7474 113.735 47.4545 113.642 47.0853 113.642C46.6927 113.642 46.2533 113.712 45.767 113.853C45.2865 113.987 44.8031 114.163 44.3168 114.38L43.3236 112.112C43.8978 111.819 44.5482 111.597 45.2748 111.444C46.0013 111.292 46.8158 111.216 47.7181 111.216ZM48.3158 116.902L47.5248 116.938C46.892 116.961 46.4466 117.072 46.1888 117.271C45.9369 117.465 45.8109 117.743 45.8109 118.106C45.8109 118.446 45.9017 118.698 46.0834 118.862C46.265 119.021 46.5052 119.1 46.8041 119.1C47.2201 119.1 47.5746 118.968 47.8675 118.704C48.1664 118.44 48.3158 118.098 48.3158 117.676V116.902Z" fill="white"/>
<path d="M61.113 118.291C61.113 118.924 60.9724 119.483 60.6911 119.97C60.4099 120.456 59.9587 120.837 59.3376 121.112C58.7224 121.388 57.9109 121.525 56.903 121.525C56.1941 121.525 55.5583 121.487 54.9958 121.411C54.4392 121.335 53.8738 121.188 53.2995 120.972V118.221C53.9265 118.508 54.5652 118.716 55.2155 118.845C55.8659 118.968 56.3786 119.029 56.7536 119.029C57.1404 119.029 57.4216 118.988 57.5974 118.906C57.779 118.818 57.8698 118.689 57.8698 118.52C57.8698 118.373 57.8083 118.25 57.6853 118.15C57.5681 118.045 57.3542 117.925 57.0437 117.79C56.739 117.655 56.3083 117.474 55.7517 117.245C55.2009 117.017 54.7409 116.768 54.3718 116.498C54.0085 116.229 53.7361 115.906 53.5544 115.531C53.3728 115.156 53.282 114.696 53.282 114.151C53.282 113.179 53.657 112.446 54.407 111.954C55.157 111.462 56.1501 111.216 57.3864 111.216C58.0427 111.216 58.6609 111.289 59.2409 111.436C59.821 111.576 60.4216 111.784 61.0427 112.06L60.1023 114.274C59.6101 114.052 59.112 113.873 58.6081 113.738C58.1042 113.604 57.7029 113.536 57.404 113.536C57.1345 113.536 56.9265 113.571 56.78 113.642C56.6335 113.712 56.5603 113.814 56.5603 113.949C56.5603 114.072 56.6101 114.181 56.7097 114.274C56.8152 114.368 57.0114 114.477 57.2986 114.6C57.5857 114.723 58.0046 114.896 58.5554 115.118C59.1355 115.353 59.613 115.604 59.988 115.874C60.3689 116.138 60.6501 116.46 60.8318 116.841C61.0193 117.222 61.113 117.705 61.113 118.291Z" fill="white"/>
<path d="M61.4649 111.392H65.086L66.7735 117.104C66.797 117.187 66.8204 117.289 66.8438 117.412C66.8673 117.529 66.8878 117.655 66.9053 117.79C66.9229 117.925 66.9346 118.057 66.9405 118.186H67.0108C67.0401 117.945 67.0723 117.737 67.1075 117.562C67.1485 117.38 67.1866 117.233 67.2218 117.122L68.9532 111.392H72.46L68.5225 121.982C68.2178 122.791 67.8634 123.468 67.4591 124.013C67.0606 124.563 66.5655 124.977 65.9737 125.252C65.3878 125.533 64.6583 125.674 63.7852 125.674C63.4688 125.674 63.1964 125.656 62.9679 125.621C62.7452 125.592 62.5489 125.56 62.379 125.524V122.826C62.5079 122.85 62.6661 122.873 62.8536 122.896C63.0411 122.92 63.2374 122.932 63.4425 122.932C63.8233 122.932 64.1309 122.855 64.3653 122.703C64.6055 122.551 64.8018 122.349 64.9542 122.097C65.1065 121.851 65.2384 121.584 65.3497 121.297L65.3848 121.209L61.4649 111.392Z" fill="white"/>
</g>
<rect x="127" y="20.5" width="106" height="118.142" rx="8" fill="url(#paint2_linear_3063_86)"/>
<path d="M180.524 38.3881L207.154 57.7356L196.982 89.0405H164.066L153.895 57.7356L180.524 38.3881Z" fill="url(#paint3_linear_3063_86)"/>
<path opacity="0.3" d="M207.104 57.9882L197.303 88.7882L180.502 66.3882L207.104 57.9882Z" fill="white"/>
<path opacity="0.1" d="M164.407 88.787L197.309 88.7871L180.508 66.3871L164.407 88.787Z" fill="white"/>
<path opacity="0.05" d="M164.41 88.7883L153.696 57.67L180.512 66.3884L164.41 88.7883Z" fill="black"/>
<path opacity="0.5" d="M180.505 38.3878L153.697 57.6695L180.505 66.3878L180.505 38.3878Z" fill="white"/>
<path opacity="0.02" d="M180.57 38.3884L207.377 57.6701L180.57 66.3884L180.57 38.3884Z" fill="black"/>
<path d="M180.484 47.0499L197.984 60.416L191.3 82.0428H169.669L162.984 60.416L180.484 47.0499Z" fill="#FFCB6C"/>
<g filter="url(#filter1_d_3063_86)">
<path d="M149.757 122.466L147.129 113.211H147.05C147.073 113.451 147.097 113.776 147.12 114.187C147.149 114.597 147.176 115.039 147.199 115.514C147.223 115.988 147.234 116.445 147.234 116.885V122.466H144.158V109.616H148.781L151.462 118.739H151.532L154.16 109.616H158.792V122.466H155.602V116.832C155.602 116.428 155.607 115.994 155.619 115.531C155.637 115.062 155.654 114.623 155.672 114.213C155.695 113.797 155.716 113.469 155.733 113.229H155.654L153.062 122.466H149.757Z" fill="white"/>
<path d="M165.481 112.332C166.448 112.332 167.283 112.502 167.986 112.842C168.689 113.176 169.231 113.68 169.612 114.354C169.993 115.027 170.183 115.871 170.183 116.885V118.414H164.039C164.069 118.936 164.262 119.363 164.619 119.697C164.983 120.031 165.516 120.198 166.219 120.198C166.84 120.198 167.409 120.137 167.924 120.014C168.446 119.891 168.982 119.7 169.533 119.442V121.912C169.052 122.164 168.528 122.349 167.959 122.466C167.391 122.583 166.673 122.642 165.806 122.642C164.804 122.642 163.908 122.463 163.117 122.105C162.326 121.748 161.702 121.194 161.244 120.444C160.793 119.694 160.568 118.73 160.568 117.553C160.568 116.357 160.773 115.376 161.183 114.608C161.593 113.835 162.167 113.264 162.906 112.895C163.644 112.52 164.502 112.332 165.481 112.332ZM165.604 114.67C165.2 114.67 164.86 114.799 164.584 115.057C164.315 115.309 164.157 115.707 164.11 116.252H167.063C167.057 115.959 166.998 115.692 166.887 115.452C166.776 115.212 166.612 115.021 166.395 114.881C166.184 114.74 165.92 114.67 165.604 114.67Z" fill="white"/>
<path d="M174.859 122.642C173.834 122.642 172.99 122.205 172.328 121.332C171.666 120.459 171.335 119.182 171.335 117.5C171.335 115.801 171.675 114.515 172.354 113.642C173.034 112.769 173.913 112.332 174.991 112.332C175.436 112.332 175.82 112.396 176.142 112.525C176.465 112.654 176.743 112.83 176.977 113.053C177.217 113.27 177.426 113.516 177.601 113.791H177.672C177.631 113.539 177.592 113.193 177.557 112.754C177.522 112.309 177.505 111.875 177.505 111.453V108.79H180.967V122.466H178.375L177.636 121.209H177.505C177.346 121.473 177.147 121.713 176.907 121.93C176.673 122.146 176.385 122.319 176.046 122.448C175.712 122.577 175.316 122.642 174.859 122.642ZM176.265 119.926C176.816 119.926 177.203 119.753 177.426 119.407C177.654 119.056 177.777 118.522 177.795 117.808V117.535C177.795 116.75 177.683 116.149 177.461 115.733C177.244 115.312 176.834 115.101 176.23 115.101C175.82 115.101 175.48 115.3 175.211 115.698C174.941 116.097 174.806 116.715 174.806 117.553C174.806 118.379 174.941 118.982 175.211 119.363C175.486 119.738 175.838 119.926 176.265 119.926Z" fill="white"/>
<path d="M186.443 112.508V122.466H183.007V112.508H186.443ZM184.738 108.5C185.231 108.5 185.658 108.603 186.022 108.808C186.391 109.013 186.575 109.42 186.575 110.029C186.575 110.621 186.391 111.022 186.022 111.233C185.658 111.438 185.231 111.541 184.738 111.541C184.234 111.541 183.804 111.438 183.446 111.233C183.095 111.022 182.919 110.621 182.919 110.029C182.919 109.42 183.095 109.013 183.446 108.808C183.804 108.603 184.234 108.5 184.738 108.5Z" fill="white"/>
<path d="M198.168 112.508V122.466H195.576L195.145 121.227H194.943C194.738 121.561 194.477 121.833 194.161 122.044C193.85 122.249 193.504 122.398 193.123 122.492C192.743 122.592 192.347 122.642 191.937 122.642C191.287 122.642 190.698 122.516 190.17 122.264C189.649 122.012 189.233 121.616 188.922 121.077C188.618 120.538 188.465 119.844 188.465 118.994V112.508H191.902V117.948C191.902 118.593 191.993 119.085 192.174 119.425C192.362 119.759 192.666 119.926 193.088 119.926C193.522 119.926 193.856 119.809 194.09 119.574C194.331 119.34 194.498 118.994 194.591 118.537C194.685 118.08 194.732 117.523 194.732 116.867V112.508H198.168Z" fill="white"/>
<path d="M212.337 112.332C213.473 112.332 214.341 112.622 214.938 113.202C215.542 113.782 215.844 114.711 215.844 115.988V122.466H212.407V117.052C212.407 116.296 212.304 115.771 212.099 115.479C211.9 115.18 211.601 115.03 211.203 115.03C210.646 115.03 210.26 115.273 210.043 115.76C209.832 116.246 209.726 116.935 209.726 117.825V122.466H206.281V117.052C206.281 116.571 206.237 116.185 206.149 115.892C206.067 115.593 205.941 115.376 205.771 115.241C205.601 115.101 205.388 115.03 205.13 115.03C204.737 115.03 204.429 115.15 204.207 115.391C203.99 115.625 203.838 115.971 203.75 116.428C203.662 116.885 203.618 117.444 203.618 118.106V122.466H200.181V112.508H202.774L203.275 113.738H203.372C203.548 113.469 203.773 113.229 204.049 113.018C204.33 112.807 204.661 112.64 205.042 112.517C205.429 112.394 205.868 112.332 206.36 112.332C207.093 112.332 207.696 112.455 208.171 112.701C208.645 112.947 209.032 113.287 209.331 113.721H209.436C209.753 113.275 210.16 112.933 210.658 112.692C211.156 112.452 211.716 112.332 212.337 112.332Z" fill="white"/>
</g>
<rect x="254" y="20.5" width="106" height="117.852" rx="8" fill="url(#paint4_linear_3063_86)"/>
<path d="M307.699 38.6L318.397 51.8759L334.329 57.9475L325.008 72.2241L324.157 89.2524L307.699 84.8L291.241 89.2524L290.39 72.2241L281.07 57.9475L297.002 51.8759L307.699 38.6Z" fill="url(#paint5_linear_3063_86)"/>
<path opacity="0.7" d="M307.696 68V38.6L296.998 51.8759L281.066 57.9475L307.696 68Z" fill="white"/>
<path opacity="0.05" d="M307.702 68V38.6L318.4 51.8759L334.332 57.9475L307.702 68Z" fill="black"/>
<path opacity="0.2" d="M307.696 68L291.596 89L290.196 72.1999L281.066 57.9475L307.696 68Z" fill="black"/>
<path opacity="0.3" d="M307.702 68L323.802 89L325.202 72.1999L334.332 57.9475L307.702 68Z" fill="white"/>
<path opacity="0.1" d="M307.701 68L323.801 89L307.701 84.8L291.601 89L307.701 68Z" fill="white"/>
<path d="M307.702 49.7999L314.121 57.7655L323.68 61.4084L318.088 69.9744L317.577 80.1914L307.702 77.5199L297.828 80.1914L297.317 69.9744L291.725 61.4084L301.284 57.7655L307.702 49.7999Z" fill="#91EB91"/>
<g filter="url(#filter2_d_3063_86)">
<path d="M297.317 122.176H293.828V116.938H289.794V122.176H286.305V109.326H289.794V114.09H293.828V109.326H297.317V122.176Z" fill="white"/>
<path d="M304.402 112.042C305.661 112.042 306.646 112.355 307.355 112.982C308.064 113.604 308.418 114.491 308.418 115.646V122.176H306.036L305.377 120.857H305.307C305.026 121.209 304.736 121.496 304.437 121.719C304.144 121.936 303.807 122.094 303.426 122.193C303.045 122.299 302.579 122.352 302.029 122.352C301.454 122.352 300.939 122.234 300.482 122C300.025 121.766 299.664 121.411 299.401 120.937C299.137 120.462 299.005 119.861 299.005 119.135C299.005 118.068 299.374 117.277 300.113 116.762C300.851 116.246 301.92 115.956 303.321 115.892L304.982 115.839V115.698C304.982 115.253 304.87 114.937 304.648 114.749C304.431 114.562 304.138 114.468 303.769 114.468C303.376 114.468 302.937 114.538 302.451 114.679C301.97 114.813 301.487 114.989 301 115.206L300.007 112.938C300.581 112.646 301.232 112.423 301.958 112.271C302.685 112.118 303.499 112.042 304.402 112.042ZM304.999 117.729L304.208 117.764C303.576 117.787 303.13 117.898 302.872 118.098C302.62 118.291 302.494 118.569 302.494 118.933C302.494 119.272 302.585 119.524 302.767 119.688C302.949 119.847 303.189 119.926 303.488 119.926C303.904 119.926 304.258 119.794 304.551 119.53C304.85 119.267 304.999 118.924 304.999 118.502V117.729Z" fill="white"/>
<path d="M316.408 112.042C316.595 112.042 316.792 112.057 316.997 112.086C317.202 112.109 317.354 112.13 317.454 112.147L317.146 115.391C317.035 115.361 316.891 115.338 316.716 115.32C316.54 115.297 316.294 115.285 315.977 115.285C315.76 115.285 315.529 115.306 315.283 115.347C315.037 115.388 314.802 115.476 314.58 115.61C314.363 115.739 314.184 115.938 314.044 116.208C313.903 116.472 313.833 116.829 313.833 117.28V122.176H310.396V112.218H312.954L313.49 113.809H313.657C313.839 113.48 314.07 113.185 314.351 112.921C314.638 112.651 314.958 112.438 315.309 112.279C315.667 112.121 316.033 112.042 316.408 112.042Z" fill="white"/>
<path d="M321.585 122.352C320.56 122.352 319.716 121.915 319.054 121.042C318.392 120.169 318.061 118.892 318.061 117.21C318.061 115.511 318.4 114.225 319.08 113.352C319.76 112.479 320.639 112.042 321.717 112.042C322.162 112.042 322.546 112.106 322.868 112.235C323.191 112.364 323.469 112.54 323.703 112.763C323.943 112.979 324.151 113.226 324.327 113.501H324.398C324.357 113.249 324.318 112.903 324.283 112.464C324.248 112.019 324.231 111.585 324.231 111.163V108.5H327.693V122.176H325.101L324.362 120.919H324.231C324.072 121.183 323.873 121.423 323.633 121.64C323.399 121.856 323.111 122.029 322.772 122.158C322.438 122.287 322.042 122.352 321.585 122.352ZM322.991 119.636C323.542 119.636 323.929 119.463 324.151 119.117C324.38 118.766 324.503 118.232 324.521 117.518V117.245C324.521 116.46 324.409 115.859 324.187 115.443C323.97 115.021 323.56 114.811 322.956 114.811C322.546 114.811 322.206 115.01 321.937 115.408C321.667 115.807 321.532 116.425 321.532 117.263C321.532 118.089 321.667 118.692 321.937 119.073C322.212 119.448 322.564 119.636 322.991 119.636Z" fill="white"/>
</g>
<rect x="203" width="40" height="40" rx="20" fill="url(#paint6_linear_3063_86)"/>
<path d="M220.333 14V16.6666H225.667V14C225.667 12.5416 224.458 11.3333 223 11.3333C221.542 11.3333 220.333 12.5416 220.333 14ZM217.667 16.6666V14C217.667 11.0416 220.042 8.66663 223 8.66663C225.958 8.66663 228.333 11.0416 228.333 14V16.6666C229.792 16.6666 231 17.875 231 19.3333V28.6666C231 30.125 229.792 31.3333 228.333 31.3333H217.667C216.208 31.3333 215 30.125 215 28.6666V19.3333C215 17.875 216.208 16.6666 217.667 16.6666Z" fill="white"/>
<rect x="330" width="40" height="40" rx="20" fill="url(#paint7_linear_3063_86)"/>
<path d="M347.333 14V16.6666H352.667V14C352.667 12.5416 351.458 11.3333 350 11.3333C348.542 11.3333 347.333 12.5416 347.333 14ZM344.667 16.6666V14C344.667 11.0416 347.042 8.66663 350 8.66663C352.958 8.66663 355.333 11.0416 355.333 14V16.6666C356.792 16.6666 358 17.875 358 19.3333V28.6666C358 30.125 356.792 31.3333 355.333 31.3333H344.667C343.208 31.3333 342 30.125 342 28.6666V19.3333C342 17.875 343.208 16.6666 344.667 16.6666Z" fill="white"/>
<rect x="76" width="40" height="40" rx="20" fill="url(#paint8_linear_3063_86)"/>
<path d="M101.51 13.0535C102.062 12.3509 103.076 12.1878 103.801 12.7058L103.811 12.7126L103.819 12.7195C104.522 13.2717 104.685 14.2852 104.167 15.0105L104.165 15.0144L95.0195 27.5886L95.0078 27.6052L94.9951 27.6199C94.7177 27.9435 94.3229 28.2029 93.8486 28.2556L93.8438 28.2566C93.3159 28.3094 92.863 28.0948 92.5391 27.8171L92.5244 27.8044L87.9316 23.2117L87.9248 23.2039C87.3194 22.5479 87.3194 21.5385 87.9248 20.8826L87.9385 20.8679L87.9531 20.8542C88.568 20.2867 89.4937 20.2512 90.1475 20.7478L90.2744 20.8542L90.2832 20.8621L90.291 20.8699L93.4844 24.0945L101.498 13.0681L101.504 13.0613L101.51 13.0535Z" fill="white" stroke="white"/>
<defs>
<filter id="filter0_d_3063_86" x="30.541" y="107.5" width="44.9199" height="23.1738" filterUnits="userSpaceOnUse" color-interpolation-filters="sRGB">
<feFlood flood-opacity="0" result="BackgroundImageFix"/>
<feColorMatrix in="SourceAlpha" type="matrix" values="0 0 0 0 0 0 0 0 0 0 0 0 0 0 0 0 0 0 127 0" result="hardAlpha"/>
<feOffset dy="2"/>
<feGaussianBlur stdDeviation="1.5"/>
<feComposite in2="hardAlpha" operator="out"/>
<feColorMatrix type="matrix" values="0 0 0 0 0 0 0 0 0 0 0 0 0 0 0 0 0 0 0.25 0"/>
<feBlend mode="normal" in2="BackgroundImageFix" result="effect1_dropShadow_3063_86"/>
<feBlend mode="normal" in="SourceGraphic" in2="effect1_dropShadow_3063_86" result="shape"/>
</filter>
<filter id="filter1_d_3063_86" x="141.158" y="107.5" width="77.6855" height="20.1416" filterUnits="userSpaceOnUse" color-interpolation-filters="sRGB">
<feFlood flood-opacity="0" result="BackgroundImageFix"/>
<feColorMatrix in="SourceAlpha" type="matrix" values="0 0 0 0 0 0 0 0 0 0 0 0 0 0 0 0 0 0 127 0" result="hardAlpha"/>
<feOffset dy="2"/>
<feGaussianBlur stdDeviation="1.5"/>
<feComposite in2="hardAlpha" operator="out"/>
<feColorMatrix type="matrix" values="0 0 0 0 0 0 0 0 0 0 0 0 0 0 0 0 0 0 0.25 0"/>
<feBlend mode="normal" in2="BackgroundImageFix" result="effect1_dropShadow_3063_86"/>
<feBlend mode="normal" in="SourceGraphic" in2="effect1_dropShadow_3063_86" result="shape"/>
</filter>
<filter id="filter2_d_3063_86" x="283.305" y="107.5" width="47.3887" height="19.8516" filterUnits="userSpaceOnUse" color-interpolation-filters="sRGB">
<feFlood flood-opacity="0" result="BackgroundImageFix"/>
<feColorMatrix in="SourceAlpha" type="matrix" values="0 0 0 0 0 0 0 0 0 0 0 0 0 0 0 0 0 0 127 0" result="hardAlpha"/>
<feOffset dy="2"/>
<feGaussianBlur stdDeviation="1.5"/>
<feComposite in2="hardAlpha" operator="out"/>
<feColorMatrix type="matrix" values="0 0 0 0 0 0 0 0 0 0 0 0 0 0 0 0 0 0 0.25 0"/>
<feBlend mode="normal" in2="BackgroundImageFix" result="effect1_dropShadow_3063_86"/>
<feBlend mode="normal" in="SourceGraphic" in2="effect1_dropShadow_3063_86" result="shape"/>
</filter>
<linearGradient id="paint0_linear_3063_86" x1="53" y1="20.5" x2="53" y2="141.674" gradientUnits="userSpaceOnUse">
<stop stop-color="#00D0FF"/>
<stop offset="1" stop-color="#00A2FF"/>
</linearGradient>
<linearGradient id="paint1_linear_3063_86" x1="67" y1="50.4426" x2="39.115" y2="78.4424" gradientUnits="userSpaceOnUse">
<stop stop-color="#00D0FF"/>
<stop offset="1" stop-color="#00A2FF"/>
</linearGradient>
<linearGradient id="paint2_linear_3063_86" x1="180" y1="20.5" x2="180" y2="138.642" gradientUnits="userSpaceOnUse">
<stop stop-color="#FFBF00"/>
<stop offset="1" stop-color="#FF6A00"/>
</linearGradient>
<linearGradient id="paint3_linear_3063_86" x1="180.524" y1="38.3881" x2="180.524" y2="89.0405" gradientUnits="userSpaceOnUse">
<stop stop-color="#FFDD00"/>
<stop offset="1" stop-color="#FF6A00"/>
</linearGradient>
<linearGradient id="paint4_linear_3063_86" x1="307" y1="138.352" x2="307" y2="20.5" gradientUnits="userSpaceOnUse">
<stop stop-color="#00B600"/>
<stop offset="1" stop-color="#36DC36"/>
</linearGradient>
<linearGradient id="paint5_linear_3063_86" x1="307.699" y1="94.6" x2="307.699" y2="38.6" gradientUnits="userSpaceOnUse">
<stop stop-color="#00B600"/>
<stop offset="1" stop-color="#36DC36"/>
</linearGradient>
<linearGradient id="paint6_linear_3063_86" x1="223" y1="0" x2="223" y2="40" gradientUnits="userSpaceOnUse">
<stop stop-color="#0095FF"/>
<stop offset="1" stop-color="#006AFF"/>
</linearGradient>
<linearGradient id="paint7_linear_3063_86" x1="350" y1="0" x2="350" y2="40" gradientUnits="userSpaceOnUse">
<stop stop-color="#0095FF"/>
<stop offset="1" stop-color="#006AFF"/>
</linearGradient>
<linearGradient id="paint8_linear_3063_86" x1="96" y1="0" x2="96" y2="40" gradientUnits="userSpaceOnUse">
<stop stop-color="#0095FF"/>
<stop offset="1" stop-color="#006AFF"/>
</linearGradient>
</defs>
</svg>
